<?xml version="1.0" standalone="no"?><!DOCTYPE svg PUBLIC "-//W3C//DTD SVG 1.1//EN" "http://www.w3.org/Graphics/SVG/1.1/DTD/svg11.dtd"><svg t="1663387575510" class="icon" viewBox="0 0 1024 1024" version="1.1" xmlns="http://www.w3.org/2000/svg" p-id="7119" xmlns:xlink="http://www.w3.org/1999/xlink" width="200" height="200"><path d="M917.333333 896c-58.813333 0-106.666667-47.853333-106.666666-106.666667 0-51.513333 36.706667-94.613333 85.333333-104.526666V522.666667a10.666667 10.666667 0 0 0-10.666667-10.666667H554.666667v172.806667c48.626667 9.913333 85.333333 53.013333 85.333333 104.526666 0 58.813333-47.853333 106.666667-106.666667 106.666667s-106.666667-47.853333-106.666666-106.666667c0-51.513333 36.706667-94.613333 85.333333-104.526666V512H181.333333a10.666667 10.666667 0 0 0-10.666666 10.666667v162.14c48.626667 9.913333 85.333333 53.013333 85.333333 104.526666 0 58.813333-47.853333 106.666667-106.666667 106.666667s-106.666667-47.853333-106.666666-106.666667c0-51.513333 36.706667-94.613333 85.333333-104.526666V522.666667a53.393333 53.393333 0 0 1 53.333333-53.333334h330.666667V339.193333C463.373333 329.28 426.666667 286.18 426.666667 234.666667c0-58.813333 47.853333-106.666667 106.666666-106.666667s106.666667 47.853333 106.666667 106.666667c0 51.513333-36.706667 94.613333-85.333333 104.526666V469.333333h330.666666a53.393333 53.393333 0 0 1 53.333334 53.333334v162.14c48.626667 9.913333 85.333333 53.013333 85.333333 104.526666 0 58.813333-47.853333 106.666667-106.666667 106.666667z m0-170.666667a64 64 0 1 0 64 64 64.073333 64.073333 0 0 0-64-64z m-384 0a64 64 0 1 0 64 64 64.073333 64.073333 0 0 0-64-64z m-384 0a64 64 0 1 0 64 64 64.073333 64.073333 0 0 0-64-64z m384-554.666666a64 64 0 1 0 64 64 64.073333 64.073333 0 0 0-64-64z" fill="#5C5C66" p-id="7120"></path></svg>