<?xml version="1.0" standalone="no"?><!DOCTYPE svg PUBLIC "-//W3C//DTD SVG 1.1//EN" "http://www.w3.org/Graphics/SVG/1.1/DTD/svg11.dtd"><svg t="1667138098339" class="icon" viewBox="0 0 1024 1024" version="1.1" xmlns="http://www.w3.org/2000/svg" p-id="886" xmlns:xlink="http://www.w3.org/1999/xlink" width="200" height="200"><path d="M515.6352 954.88a28.3136 28.3136 0 0 1-11.1616-2.304L33.8944 752.2816a28.5696 28.5696 0 0 1 0-52.5312l235.1616-100.0448a28.5184 28.5184 0 1 1 22.3232 52.5312L117.76 726.016l397.6704 169.2672 397.6704-169.2672-173.4144-73.7792a28.5696 28.5696 0 1 1 22.3744-52.5312l235.1104 100.0448a28.5184 28.5184 0 0 1 0 52.5312l-470.528 200.2944a28.3648 28.3648 0 0 1-11.008 2.304z" p-id="887"></path><path d="M515.6352 754.688a29.184 29.184 0 0 1-11.1616-2.2528L33.8944 552.1408a28.5696 28.5696 0 0 1 0-52.5312L269.056 399.36a28.5184 28.5184 0 1 1 22.3232 52.736L117.76 525.8752l397.6704 169.2672 397.6704-169.2672-173.2096-73.7792a28.5696 28.5696 0 1 1 22.3744-52.736l235.1104 100.2496a28.5184 28.5184 0 0 1 0 52.5312L526.848 752.64a29.2352 29.2352 0 0 1-11.2128 2.048z" p-id="888"></path><path d="M515.6352 554.5472a29.184 29.184 0 0 1-11.1616-2.2528L33.8944 352a28.5696 28.5696 0 0 1 0-52.5312l470.5792-200.2432a28.3136 28.3136 0 0 1 22.3744 0l470.528 200.2432a28.5184 28.5184 0 0 1 0 52.5312l-470.528 200.2944a29.2352 29.2352 0 0 1-11.2128 2.2528zM117.76 325.7344l397.6704 169.2672 397.6704-169.2672-397.6704-168.96z" p-id="889"></path></svg>