<svg t="1609115304917" class="icon" viewBox="0 0 1024 1024" version="1.1" xmlns="http://www.w3.org/2000/svg" p-id="5898" width="200" height="200"><path d="M459.29 485.65H274.82C158.58 485.65 64 391.08 64 274.83S158.58 64 274.82 64s210.82 94.58 210.82 210.82v184.47c0.01 14.56-11.79 26.36-26.35 26.36zM274.82 116.71c-87.19 0-158.12 70.93-158.12 158.12s70.93 158.12 158.12 158.12h158.12V274.82c0-87.18-70.93-158.11-158.12-158.11zM749.18 485.65H564.71c-14.55 0-26.35-11.8-26.35-26.35V274.82C538.35 158.58 632.93 64 749.18 64S960 158.58 960 274.82s-94.58 210.83-210.82 210.83z m-158.12-52.71h158.12c87.19 0 158.12-70.93 158.12-158.11 0-87.19-70.93-158.12-158.12-158.12s-158.12 70.93-158.12 158.12v158.11zM274.82 960C158.58 960 64 865.43 64 749.18s94.58-210.83 210.82-210.83h184.47c14.55 0 26.35 11.8 26.35 26.35v184.48C485.65 865.43 391.07 960 274.82 960z m0-368.94c-87.19 0-158.12 70.93-158.12 158.12S187.63 907.3 274.82 907.3s158.12-70.93 158.12-158.11V591.06H274.82zM749.18 960c-116.25 0-210.82-94.57-210.82-210.82V564.71c0-14.55 11.8-26.35 26.35-26.35h184.47c116.25 0 210.82 94.58 210.82 210.82S865.42 960 749.18 960zM591.06 591.06v158.12c0 87.18 70.93 158.11 158.12 158.11S907.3 836.36 907.3 749.18c0-87.19-70.93-158.12-158.12-158.12H591.06z" fill="#333333" p-id="5899"></path></svg>
