<svg t="1609115459975" class="icon" viewBox="0 0 1024 1024" version="1.1" xmlns="http://www.w3.org/2000/svg" p-id="7874" width="200" height="200"><path d="M789.333333 193.493333h-106.666666V149.333333a21.333333 21.333333 0 1 0-42.666667 0v44.16H409.173333V149.333333a21.333333 21.333333 0 0 0-42.666666 0v44.16H234.666667a106.666667 106.666667 0 0 0-106.666667 106.666667V789.333333a106.666667 106.666667 0 0 0 106.666667 106.666667h554.666666a106.666667 106.666667 0 0 0 106.666667-106.666667V299.946667a106.666667 106.666667 0 0 0-106.666667-106.453334z m-618.666666 106.666667a64 64 0 0 1 64-64h131.84V277.333333a21.333333 21.333333 0 0 0 42.666666 0v-41.173333h231.893334V277.333333a21.333333 21.333333 0 1 0 42.666666 0v-41.173333h106.666667a64 64 0 0 1 64 64V341.333333H170.666667zM789.333333 853.333333H234.666667a64 64 0 0 1-64-64V384h682.666666v405.333333a64 64 0 0 1-64 64z" p-id="7875"></path><path d="M693.12 477.653333L466.773333 704l-135.893333-135.893333a21.333333 21.333333 0 1 0-30.08 30.293333l150.826667 150.826667a21.333333 21.333333 0 0 0 15.146666 6.186666 21.333333 21.333333 0 0 0 15.146667-6.186666L723.2 507.946667a21.333333 21.333333 0 0 0 0-30.293334 21.333333 21.333333 0 0 0-30.08 0z" p-id="7876"></path></svg>
