<svg t="1609124163176" class="icon" viewBox="0 0 1024 1024" version="1.1" xmlns="http://www.w3.org/2000/svg" p-id="4217" width="200" height="200"><path d="M382.567 285.19h258.864c44.096 0 80.029-35.866 80.029-79.939v-4.294c0-2.722-0.135-5.442-0.428-8.096-3.709-36.787-32.494-66.221-68.897-71.125-3.485-0.471-7.038-0.833-10.705-0.833h-34.695v-6.407c0-44.097-35.867-80.030-80.030-80.030h-29.457c-44.118 0-80.007 35.933-80.007 80.030v6.407h-34.718c-3.619 0-7.152 0.362-10.682 0.833-36.384 4.903-65.188 34.291-68.876 71.079-0.27 2.677-0.428 5.375-0.428 8.096v4.294c0 44.119 35.935 79.985 80.030 79.985zM852.736 100.645h-117.85v42.161h117.85c8.004 0 14.505 6.498 14.505 14.505v778.704c0 8.005-6.5 14.505-14.505 14.505h-681.474c-8.004 0-14.505-6.499-14.505-14.549v-778.704c0-7.983 6.499-14.482 14.505-14.482h117.807v-42.185h-117.807c-31.254 0-56.642 25.433-56.642 56.621v778.66c0 31.254 25.387 56.666 56.642 56.666h681.474c31.258 0 56.644-25.388 56.644-56.621v-778.659c-0.001-31.234-25.387-56.621-56.644-56.621zM320.077 464.25h383.845c23.723 0 42.948-19.247 42.948-42.972 0-23.723-19.225-42.95-42.948-42.95h-383.845c-23.723 0-42.97 19.228-42.97 42.95 0 23.724 19.248 42.972 42.97 42.972zM703.921 556.421h-383.845c-23.723 0-42.97 19.227-42.97 42.948 0 23.724 19.248 42.972 42.97 42.972h383.845c23.723 0 42.948-19.248 42.948-42.972 0-23.721-19.227-42.948-42.948-42.948zM703.921 734.515h-383.845c-23.723 0-42.97 19.223-42.97 42.948 0 23.747 19.248 42.974 42.97 42.974h383.845c23.723 0 42.948-19.25 42.948-42.974s-19.227-42.948-42.948-42.948z" p-id="4218"></path></svg>
