<?xml version="1.0" standalone="no"?><!DOCTYPE svg PUBLIC "-//W3C//DTD SVG 1.1//EN" "http://www.w3.org/Graphics/SVG/1.1/DTD/svg11.dtd"><svg t="1667138245307" class="icon" viewBox="0 0 1024 1024" version="1.1" xmlns="http://www.w3.org/2000/svg" p-id="3341" xmlns:xlink="http://www.w3.org/1999/xlink" width="200" height="200"><path d="M206.3 69.8H816c9.3 1 18.6 1.6 27.6 4.1 24.4 6.3 46.6 20.9 62.1 40.8 10.4 13.1 17.8 28.5 21.6 44.8 2.7 11 3.3 22.3 3.2 33.6v627.8c0 12.3 0.4 24.6-1.8 36.8-4.5 26.2-18.4 50.5-38.5 67.8-15.3 13.2-34 22.4-53.9 26.2-6.4 1.4-12.9 1.4-19.3 2.5H208.5c-5.8-0.9-11.8-0.8-17.6-1.9-27.3-4.3-52.7-18.9-70.3-40-16.6-19.6-26.2-44.9-27.2-70.6V182.4c1.1-28.6 12.9-56.7 33.1-77.1 18.8-19.4 44.5-31.9 71.4-34.5 2.8-0.2 5.6-0.4 8.4-1m76.3 193.4c-11.9 0.4-22.5 11.2-22.1 23.2-0.6 12.6 10.8 23.8 23.3 23.5H740c6.5 0 13-2.7 17.4-7.6 6.9-7.3 8-19.2 2.8-27.8-4.1-7-12.1-11.4-20.2-11.3-152.5 0-305-0.1-457.4 0m-4 190.5c-5.5 1.3-10.4 4.5-13.7 9-5.8 7.7-5.9 19.1-0.3 27 4.3 6.3 11.7 10.1 19.3 10.1H534c7.7 0.2 15.4-3.5 19.8-9.8 5.7-7.7 5.8-19.1 0.2-26.9-4.2-6.3-11.6-10.1-19.1-10.1h-251c-1.8 0.2-3.6 0.4-5.3 0.7m437.3 0.1c-8.2 1.1-16.1 3.6-23.4 7.5-13 6.8-22.5 18.4-32.8 28.5-67 67.1-134.1 134.1-201.1 201.1-3.1 3.3-5 7.7-5.7 12.2-8.1 47.5-16.2 95-24.4 142.4-0.5 3.4-0.5 7 0.4 10.4 2.7 11.1 14.5 18.9 25.8 17 46.1-7.8 92.3-15.8 138.4-23.7 6.5-0.8 13.4-2.4 18-7.3l217.1-217.1c17.3-17.5 24.1-44.4 17.2-67.9-3.3-11.9-9.9-22.8-18.8-31.3l-53.1-53.1c-14.9-14.5-36.8-21.6-57.6-18.7M281.8 639.9c-9.7 0.6-18.3 8.1-20.6 17.4-1.2 5.3-0.8 11.1 1.6 16.1 3.2 6.7 9.7 11.6 17 12.8 2.4 0.4 4.9 0.2 7.3 0.3h99.8c8.2-0.1 15.9-5.1 19.7-12.2 3.9-7.2 3.6-16.5-0.7-23.4-4.2-6.7-11.9-11.2-19.9-11-34.7 0.1-69.5 0-104.2 0z" p-id="3342"></path><path d="M709.5 506.1c8.3-8.3 23.1-8.3 31.5 0 16.4 16.3 32.7 32.7 49.1 49 3.4 3.5 7.3 6.6 9.3 11.2 4.3 8.7 2.1 19.8-4.8 26.4L583.7 803.6c-34.5 5.9-69.1 11.8-103.6 17.7 5.9-34.5 11.7-69 17.8-103.5 70.4-70.6 141.1-141.1 211.6-211.7m2.7 22.4c-9.2 1.6-16.9 9.4-18.5 18.6-1.5 7.5 1.1 15.6 6.5 20.9l32.7 32.7c3.6 3.7 8.4 6.4 13.6 7.1 8.3 1.3 17.2-2.2 22.2-9 5.5-7.2 6.1-17.8 1.6-25.6-2.3-4.1-6.1-6.9-9.2-10.3l-28.6-28.6c-5.3-5.2-13.1-7.1-20.3-5.8m-47.9 46.2c-8.3 2.3-14.9 9.6-16.3 18.1-1.4 7.3 0.9 15.3 6.2 20.5 11.5 11.4 22.9 22.9 34.3 34.3 7.3 7 19.4 8.1 28 2.8 7.8-4.7 12.3-14.3 10.9-23.3-0.6-5-3.1-9.7-6.7-13.3-11.2-11.2-22.3-22.4-33.5-33.5-5.9-5.8-15-7.9-22.9-5.6z" p-id="3343"></path></svg>