<?xml version="1.0" standalone="no"?><!DOCTYPE svg PUBLIC "-//W3C//DTD SVG 1.1//EN" "http://www.w3.org/Graphics/SVG/1.1/DTD/svg11.dtd"><svg t="1663387849186" class="icon" viewBox="0 0 1024 1024" version="1.1" xmlns="http://www.w3.org/2000/svg" p-id="8074" xmlns:xlink="http://www.w3.org/1999/xlink" width="200" height="200"><path d="M316.034305 645.090181c-16.969487 0-30.789237-13.821797-30.789237-30.79026 0-16.991999 13.820774-30.841426 30.789237-30.841426l376.865253 0c16.993023 0 30.813796 13.847379 30.813796 30.841426 0 16.968463-13.820774 30.79026-30.813796 30.79026L316.034305 645.090181 316.034305 645.090181zM311.444776 811.624055c-16.995069 0-30.815843-13.82282-30.815843-30.81482 0-16.968463 13.81975-30.815843 30.815843-30.815843l376.838647 0c16.994046 0 30.81482 13.847379 30.81482 30.815843 0 16.991999-13.820774 30.81482-30.81482 30.81482L311.444776 811.624055 311.444776 811.624055zM144.125003 1024c-53.214992 0-83.21526-33.604352-83.21526-84.266196L60.909743 116.042923c0-48.669466 24.882714-90.86652 85.261872-90.86652l530.546402 0c12.982686 0 24.206308 6.936993 30.027897 18.554588 5.796006 11.631922 4.64274 24.785499-3.173273 35.168987-6.294356 8.419763-16.33913 13.45443-26.854625 13.45443l-442.508299 0c-19.617803 0-35.196617 0-47.888683 0l-25.255197 0c-7.945973 0-14.319124 0-19.984147 0l-13.034874-0.039909 0 864.495216 771.300674 0-0.024559-13.007245c-0.077771-19.433608-0.052189-33.910321-0.026606-52.241828l0-0.788969c0-11.120268 0.026606-23.813359 0.026606-40.1003L899.322931 361.549429c0-10.476609 4.982478-20.494777 13.323447-26.802436 6.033413-4.510734 12.955056-6.872524 20.062941-6.872524 16.231683 0 33.778314 12.863982 33.778314 33.662681l0 582.291926c0 25.308409-5.506411 44.662199-16.338107 57.485249-12.668531 15.030321-34.146705 22.686698-63.832817 22.686698L144.125003 1024 144.125003 1024zM824.397475 53.905724l7.867178-9.677407c6.531763-8.063653 15.448854-19.092847 20.928658-25.110911 9.31004-10.215666 22.107507-15.631002 37.004799-15.631002 9.335622 0 17.333784 2.085498 22.421662 3.843538 16.944927 5.820566 39.312354 25.387203 49.907667 43.612287 11.434423 19.709901 11.33107 39.969317-0.261966 55.599296-9.389858 12.745279-16.809851 22.212908-19.590174 25.675776l-7.107885 8.955976L824.397475 53.905724 824.397475 53.905724zM614.432439 472.129944c-6.242168 0-11.304464-1.952468-15.080463-5.810333-4.771677-4.889357-6.897084-12.285814-6.661723-23.248494 0.419556-18.712177 10.490935-77.614705 14.320147-90.099041 2.883677-9.388834 6.39771-17.873066 14.160511-28.691459 11.199063-15.552208 150.09139-199.605084 177.812755-236.347916l7.082302-9.360182L917.077294 165.785837l-6.738471 9.009188c-39.235606 52.267411-167.714769 223.508493-174.953637 232.766344-6.374174 8.157797-14.923898 16.194844-22.843264 21.4925-16.548908 11.106965-69.654406 36.911678-87.146802 41.475624C621.276311 471.606011 617.683483 472.129944 614.432439 472.129944L614.432439 472.129944 614.432439 472.129944z" p-id="8075"></path></svg>