<?xml version="1.0" standalone="no"?><!DOCTYPE svg PUBLIC "-//W3C//DTD SVG 1.1//EN" "http://www.w3.org/Graphics/SVG/1.1/DTD/svg11.dtd"><svg t="1629363760417" class="icon" viewBox="0 0 1024 1024" version="1.1" xmlns="http://www.w3.org/2000/svg" p-id="2245" xmlns:xlink="http://www.w3.org/1999/xlink" width="200" height="200"><defs><style type="text/css"></style></defs><path d="M848 253c8.82 0 16 7.18 16 16v611c0 8.82-7.18 16-16 16H178c-8.82 0-16-7.18-16-16V269c0-8.82 7.18-16 16-16h670m0-64H178c-44.18 0-80 35.82-80 80v611c0 44.18 35.82 80 80 80h670c44.18 0 80-35.82 80-80V269c0-44.18-35.82-80-80-80z" p-id="2246"></path><path d="M601 128c8.82 0 16 7.18 16 16v45H407v-45c0-8.82 7.18-16 16-16h178m0-64H423c-44.18 0-80 35.82-80 80v109h338V144c0-44.18-35.82-80-80-80zM274.45 611.95c-8.19 0-16.38 3.12-22.63 9.37-12.5 12.5-12.5 32.76 0 45.25l130.11 130.11c6.25 6.25 14.44 9.37 22.63 9.37s16.38-3.12 22.63-9.37c12.5-12.5 12.5-32.76 0-45.25L297.07 621.32c-6.24-6.25-14.43-9.37-22.62-9.37z" p-id="2247"></path><path d="M404.55 611.95c-8.19 0-16.38 3.12-22.63 9.37l-130.1 130.11c-12.5 12.5-12.5 32.76 0 45.25 6.25 6.25 14.44 9.37 22.63 9.37s16.38-3.12 22.63-9.37l130.11-130.11c12.5-12.5 12.5-32.76 0-45.25-6.26-6.25-14.45-9.37-22.64-9.37zM320.05 498.74c-11.03 0-22.08-3.45-31.34-10.46l-67.94-49.07c-14.33-10.35-17.55-30.35-7.21-44.68 10.35-14.33 30.35-17.55 44.68-7.21l60.75 43.88 98.28-94.95c12.71-12.28 32.97-11.93 45.25 0.78 12.28 12.71 11.93 32.97-0.78 45.25L356.22 484.21c-9.96 9.63-23.05 14.53-36.17 14.53zM781 401H555c-17.67 0-32 14.33-32 32s14.33 32 32 32h226c17.67 0 32-14.33 32-32s-14.33-32-32-32z" p-id="2248"></path><path d="M766 677H540c-17.67 0-32 14.33-32 32s14.33 32 32 32h226c17.67 0 32-14.33 32-32s-14.33-32-32-32z" p-id="2249"></path></svg>